<svg width="990" height="662" viewBox="0 0 990 662" fill="none" xmlns="http://www.w3.org/2000/svg">
<g filter="url(#filter0_i_1_36)">
<path fill-rule="evenodd" clip-rule="evenodd" d="M177.748 505.897H921.255C921.685 505.897 922.115 505.915 922.545 505.951C922.974 505.988 923.402 506.042 923.829 506.115C924.257 506.188 924.682 506.279 925.105 506.388C925.528 506.496 925.949 506.623 926.366 506.767C926.785 506.912 927.199 507.074 927.609 507.254C928.021 507.433 928.428 507.63 928.83 507.844C929.233 508.058 929.631 508.289 930.023 508.537C930.416 508.785 930.803 509.049 931.185 509.33C931.566 509.61 931.941 509.907 932.31 510.219C932.679 510.532 933.041 510.86 933.396 511.203C933.751 511.546 934.099 511.904 934.439 512.276C934.778 512.649 935.109 513.036 935.433 513.436C935.756 513.837 936.071 514.251 936.377 514.679C936.682 515.106 936.979 515.546 937.265 515.998C937.552 516.451 937.829 516.915 938.097 517.391C938.364 517.867 938.621 518.354 938.868 518.852L986.123 614.275C986.403 614.84 986.669 615.418 986.922 616.008C987.173 616.599 987.411 617.201 987.634 617.815C987.856 618.428 988.064 619.052 988.255 619.685C988.447 620.319 988.623 620.961 988.785 621.612C988.947 622.262 989.094 622.92 989.226 623.585C989.357 624.249 989.471 624.92 989.567 625.595C989.663 626.271 989.744 626.95 989.81 627.634C989.876 628.317 989.924 629.003 989.954 629.691C989.99 630.379 990.005 631.068 989.999 631.758C989.999 632.447 989.981 633.136 989.945 633.824C989.909 634.512 989.858 635.197 989.792 635.88C989.726 636.563 989.642 637.241 989.54 637.916C989.438 638.591 989.321 639.26 989.19 639.923C989.058 640.587 988.908 641.243 988.74 641.892C988.578 642.542 988.399 643.182 988.201 643.813C988.006 644.445 987.796 645.067 987.57 645.679C987.344 646.291 987.104 646.891 986.85 647.479C986.595 648.067 986.326 648.642 986.044 649.205C985.761 649.767 985.466 650.315 985.157 650.849C984.848 651.384 984.526 651.903 984.192 652.405C983.859 652.909 983.513 653.395 983.155 653.865C982.798 654.335 982.43 654.787 982.05 655.222C981.671 655.656 981.282 656.072 980.883 656.469C980.483 656.866 980.074 657.243 979.656 657.601C979.239 657.958 978.814 658.295 978.38 658.611C977.946 658.929 977.505 659.224 977.057 659.498C976.608 659.773 976.154 660.025 975.694 660.255C975.234 660.486 974.768 660.694 974.298 660.879C973.827 661.065 973.353 661.227 972.875 661.368C972.397 661.508 971.916 661.624 971.432 661.718C970.948 661.812 970.462 661.882 969.975 661.929C969.488 661.976 969 662 968.511 662H130.49C130.002 662 129.514 661.976 129.027 661.929C128.539 661.882 128.054 661.812 127.57 661.718C127.086 661.624 126.605 661.508 126.127 661.368C125.649 661.228 125.174 661.065 124.704 660.879C124.234 660.694 123.768 660.486 123.308 660.255C122.847 660.025 122.393 659.773 121.945 659.498C121.497 659.224 121.056 658.929 120.622 658.613C120.188 658.295 119.762 657.958 119.345 657.601C118.927 657.243 118.519 656.866 118.119 656.469C117.72 656.072 117.331 655.656 116.951 655.222C116.572 654.787 116.204 654.335 115.846 653.865C115.489 653.395 115.143 652.909 114.809 652.405C114.475 651.903 114.154 651.384 113.845 650.849C113.536 650.315 113.24 649.767 112.958 649.205C112.675 648.642 112.407 648.067 112.152 647.479C111.897 646.89 111.657 646.29 111.432 645.679C111.206 645.067 110.995 644.445 110.8 643.813C110.604 643.181 110.424 642.541 110.259 641.892C110.094 641.243 109.945 640.587 109.812 639.923C109.679 639.26 109.562 638.591 109.462 637.916C109.361 637.241 109.277 636.563 109.209 635.88C109.141 635.197 109.09 634.512 109.055 633.824C109.02 633.136 109.002 632.447 109 631.757C108.998 631.068 109.014 630.379 109.045 629.691C109.077 629.003 109.125 628.317 109.19 627.634C109.255 626.95 109.336 626.271 109.434 625.595C109.531 624.919 109.645 624.249 109.775 623.585C109.905 622.92 110.051 622.262 110.213 621.612C110.375 620.961 110.552 620.319 110.745 619.685C110.937 619.052 111.145 618.428 111.368 617.815C111.591 617.201 111.828 616.599 112.08 616.008C112.332 615.417 112.598 614.84 112.878 614.274L160.135 518.852C160.382 518.354 160.639 517.867 160.906 517.391C161.173 516.915 161.45 516.451 161.737 515.998C162.024 515.546 162.321 515.106 162.626 514.678C162.932 514.251 163.247 513.837 163.57 513.436C163.893 513.036 164.225 512.649 164.564 512.276C164.904 511.904 165.252 511.546 165.606 511.203C165.962 510.86 166.323 510.532 166.692 510.219C167.061 509.907 167.436 509.61 167.818 509.33C168.2 509.049 168.587 508.785 168.979 508.537C169.372 508.289 169.77 508.058 170.173 507.844C170.575 507.63 170.982 507.433 171.393 507.254C171.804 507.074 172.218 506.912 172.636 506.767C173.054 506.623 173.475 506.496 173.898 506.388C174.321 506.279 174.746 506.188 175.173 506.115C175.6 506.042 176.029 505.988 176.458 505.951C176.888 505.915 177.318 505.897 177.748 505.897Z" fill="#727D86"/>
<path d="M109.019 631.541H989.981V650C989.981 656.627 984.608 662 977.981 662H121.019C114.392 662 109.019 656.627 109.019 650V631.541Z" fill="#A1AAB3"/>
<path d="M421.432 583.728C423.119 578.918 427.659 575.699 432.756 575.699H665.251C670.298 575.699 674.806 578.857 676.529 583.601L699.167 645.902C702.011 653.728 696.215 662 687.889 662H410.908C402.639 662 396.847 653.832 399.584 646.029L421.432 583.728Z" fill="#A1AAB3"/>
</g>
<g filter="url(#filter1_i_1_36)">
<path d="M910.89 0C922.808 0 932.465 10.1971 932.465 22.7796V483.117C932.465 495.7 922.808 505.897 910.89 505.897H188.11C176.193 505.897 166.535 495.7 166.535 483.117V22.7796C166.535 10.1971 176.193 0 188.11 0H910.89Z" fill="#A1AAB3"/>
<path d="M903.698 18.8368C909.656 18.8368 914.486 23.9354 914.486 30.2266V476.568C914.486 482.859 909.656 487.958 903.698 487.958H196.201C190.242 487.958 185.413 482.859 185.413 476.568V30.2266C185.413 23.9354 190.242 18.8368 196.201 18.8368H903.698Z" fill="url(#paint0_linear_1_36)"/>
</g>
<g filter="url(#filter2_d_1_36)">
<rect x="12" y="160" width="341" height="341" rx="12" fill="url(#paint1_linear_1_36)"/>
</g>
<path d="M113.143 458V208.73H184.064C205.619 208.73 222.712 214.003 235.344 224.549C247.975 235.094 254.291 248.827 254.291 265.746C254.291 279.884 250.467 292.168 242.818 302.598C235.17 313.027 224.624 320.444 211.182 324.848V325.543C227.985 327.513 241.428 333.887 251.51 344.664C261.592 355.326 266.633 369.232 266.633 386.383C266.633 407.706 258.984 424.973 243.688 438.184C228.391 451.395 209.096 458 185.803 458H113.143ZM142.346 235.152V315.635H172.244C188.236 315.635 200.81 311.811 209.965 304.162C219.12 296.398 223.697 285.505 223.697 271.482C223.697 247.262 207.763 235.152 175.895 235.152H142.346ZM142.346 341.883V431.578H181.979C199.13 431.578 212.398 427.522 221.785 419.41C231.288 411.298 236.039 400.173 236.039 386.035C236.039 356.6 215.991 341.883 175.895 341.883H142.346Z" fill="white"/>
<defs>
<filter id="filter0_i_1_36" x="109" y="505.897" width="881" height="162.103" filterUnits="userSpaceOnUse" color-interpolation-filters="sRGB">
<feFlood flood-opacity="0" result="BackgroundImageFix"/>
<feBlend mode="normal" in="SourceGraphic" in2="BackgroundImageFix" result="shape"/>
<feColorMatrix in="SourceAlpha" type="matrix" values="0 0 0 0 0 0 0 0 0 0 0 0 0 0 0 0 0 0 127 0" result="hardAlpha"/>
<feOffset dy="6"/>
<feGaussianBlur stdDeviation="6"/>
<feComposite in2="hardAlpha" operator="arithmetic" k2="-1" k3="1"/>
<feColorMatrix type="matrix" values="0 0 0 0 0 0 0 0 0 0 0 0 0 0 0 0 0 0 0.25 0"/>
<feBlend mode="normal" in2="shape" result="effect1_innerShadow_1_36"/>
</filter>
<filter id="filter1_i_1_36" x="166.535" y="-6" width="765.931" height="511.897" filterUnits="userSpaceOnUse" color-interpolation-filters="sRGB">
<feFlood flood-opacity="0" result="BackgroundImageFix"/>
<feBlend mode="normal" in="SourceGraphic" in2="BackgroundImageFix" result="shape"/>
<feColorMatrix in="SourceAlpha" type="matrix" values="0 0 0 0 0 0 0 0 0 0 0 0 0 0 0 0 0 0 127 0" result="hardAlpha"/>
<feOffset dy="-6"/>
<feGaussianBlur stdDeviation="6"/>
<feComposite in2="hardAlpha" operator="arithmetic" k2="-1" k3="1"/>
<feColorMatrix type="matrix" values="0 0 0 0 0 0 0 0 0 0 0 0 0 0 0 0 0 0 0.25 0"/>
<feBlend mode="normal" in2="shape" result="effect1_innerShadow_1_36"/>
</filter>
<filter id="filter2_d_1_36" x="0" y="154" width="365" height="365" filterUnits="userSpaceOnUse" color-interpolation-filters="sRGB">
<feFlood flood-opacity="0" result="BackgroundImageFix"/>
<feColorMatrix in="SourceAlpha" type="matrix" values="0 0 0 0 0 0 0 0 0 0 0 0 0 0 0 0 0 0 127 0" result="hardAlpha"/>
<feOffset dy="6"/>
<feGaussianBlur stdDeviation="6"/>
<feComposite in2="hardAlpha" operator="out"/>
<feColorMatrix type="matrix" values="0 0 0 0 0 0 0 0 0 0 0 0 0 0 0 0 0 0 0.5 0"/>
<feBlend mode="normal" in2="BackgroundImageFix" result="effect1_dropShadow_1_36"/>
<feBlend mode="normal" in="SourceGraphic" in2="effect1_dropShadow_1_36" result="shape"/>
</filter>
<linearGradient id="paint0_linear_1_36" x1="185.413" y1="18.8368" x2="935.39" y2="451.742" gradientUnits="userSpaceOnUse">
<stop stop-color="#1860FB"/>
<stop offset="1" stop-color="#1ED5DA"/>
</linearGradient>
<linearGradient id="paint1_linear_1_36" x1="12" y1="160" x2="353" y2="501" gradientUnits="userSpaceOnUse">
<stop stop-color="#368EEE"/>
<stop offset="1" stop-color="#3264CB"/>
</linearGradient>
</defs>
</svg>
